{
  "accessors": [
    {
      "bufferView": 2,
      "componentType": 5126,
      "count": 2087,
      "max": [
        67.59336853027344,
        39.95310592651367,
        222.01246643066406
      ],
      "min": [
        -119.58576202392578,
        -98.40223693847656,
        -155.220947265625
      ],
      "type": "VEC3"
    },
    {
      "bufferView": 2,
      "byteOffset": 25044,
      "componentType": 5126,
      "count": 2087,
      "max": [
        0.9967886209487915,
        0.9998639822006226,
        0.9993556141853333
      ],
      "min": [
        -0.9997919201850891,
        -0.9999511241912842,
        -0.9920564293861389
      ],
      "type": "VEC3"
    },
    {
      "bufferView": 3,
      "componentType": 5126,
      "count": 2087,
      "max": [
        0.99943608045578,
        0.9963729381561279,
        0.9980951547622681,
        1.0
      ],
      "min": [
        -0.9999749660491943,
        -0.9966250658035278,
        -0.9962294697761536,
        -1.0
      ],
      "type": "VEC4"
    },
    {
      "bufferView": 1,
      "componentType": 5126,
      "count": 2087,
      "max": [
        0.9876841306686401,
        0.996112585067749
      ],
      "min": [
        0.0010000000474974513,
        0.0010000000474974513
      ],
      "type": "VEC2"
    },
    {
      "bufferView": 0,
      "componentType": 5125,
      "count": 9372,
      "type": "SCALAR"
    },
    {
      "bufferView": 2,
      "byteOffset": 50088,
      "componentType": 5126,
      "count": 82,
      "max": [
        146.8299560546875,
        -3.9281575679779053,
        26.668426513671875
      ],
      "min": [
        -150.26806640625,
        -11.840587615966797,
        -178.46212768554688
      ],
      "type": "VEC3"
    },
    {
      "bufferView": 2,
      "byteOffset": 51072,
      "componentType": 5126,
      "count": 82,
      "max": [
        0.9928135871887207,
        0.9923993349075317,
        0.9987884163856506
      ],
      "min": [
        -0.9144706130027771,
        -0.9920555949211121,
        -0.992507815361023
      ],
      "type": "VEC3"
    },
    {
      "bufferView": 3,
      "byteOffset": 33392,
      "componentType": 5126,
      "count": 82,
      "max": [
        0.981013298034668,
        0.9881142973899841,
        0.9940383434295654,
        1.0
      ],
      "min": [
        -0.9991254806518555,
        -0.9990338087081909,
        -0.9767966866493225,
        1.0
      ],
      "type": "VEC4"
    },
    {
      "bufferView": 1,
      "byteOffset": 16696,
      "componentType": 5126,
      "count": 82,
      "max": [
        0.9495800733566284,
        0.9680639505386353
      ],
      "min": [
        0.017301375046372414,
        0.010326862335205078
      ],
      "type": "VEC2"
    },
    {
      "bufferView": 0,
      "byteOffset": 37488,
      "componentType": 5125,
      "count": 336,
      "type": "SCALAR"
    }
  ],
  "asset": {
    "extras": {
      "author": "albertluna (https://sketchfab.com/albertluna)",
      "license": "CC-BY-4.0 (http://creativecommons.org/licenses/by/4.0/)",
      "source": "https://sketchfab.com/3d-models/jeronima-2516a1343f1d4eca9d491a9f9e0a98bf",
      "title": "Jerònima"
    },
    "generator": "Sketchfab-15.77.0",
    "version": "2.0"
  },
  "bufferViews": [
    {
      "buffer": 0,
      "byteLength": 38832,
      "name": "floatBufferViews",
      "target": 34963
    },
    {
      "buffer": 0,
      "byteLength": 17352,
      "byteOffset": 38832,
      "byteStride": 8,
      "name": "floatBufferViews",
      "target": 34962
    },
    {
      "buffer": 0,
      "byteLength": 52056,
      "byteOffset": 56184,
      "byteStride": 12,
      "name": "floatBufferViews",
      "target": 34962
    },
    {
      "buffer": 0,
      "byteLength": 34704,
      "byteOffset": 108240,
      "byteStride": 16,
      "name": "floatBufferViews",
      "target": 34962
    }
  ],
  "buffers": [
    {
      "byteLength": 142944,
      "uri": "scene.bin"
    }
  ],
  "extensionsUsed": [
    "KHR_materials_emissive_strength",
    "KHR_materials_specular"
  ],
  "images": [
    {
      "uri": "textures/Material_2_baseColor.png"
    },
    {
      "uri": "textures/Material_2_metallicRoughness.png"
    },
    {
      "uri": "textures/Material_2_emissive.png"
    },
    {
      "uri": "textures/Material_2_normal.png"
    },
    {
      "uri": "textures/Material_3_baseColor.png"
    },
    {
      "uri": "textures/Material_3_metallicRoughness.png"
    },
    {
      "uri": "textures/Material_3_normal.png"
    }
  ],
  "materials": [
    {
      "doubleSided": true,
      "emissiveFactor": [
        1.0,
        1.0,
        1.0
      ],
      "emissiveTexture": {
        "index": 2
      },
      "extensions": {
        "KHR_materials_emissive_strength": {
          "emissiveStrength": 6.28034528784673
        },
        "KHR_materials_specular": {
          "specularColorFactor": [
            1.0,
            1.0,
            1.0
          ],
          "specularFactor": 0.0
        }
      },
      "name": "Material_2",
      "normalTexture": {
        "index": 3
      },
      "pbrMetallicRoughness": {
        "baseColorTexture": {
          "index": 0
        },
        "metallicFactor": 0.0976294975140907,
        "metallicRoughnessTexture": {
          "index": 1
        },
        "roughnessFactor": 0.9136372379303712
      }
    },
    {
      "doubleSided": true,
      "name": "Material_3",
      "normalTexture": {
        "index": 6
      },
      "pbrMetallicRoughness": {
        "baseColorTexture": {
          "index": 4
        },
        "metallicRoughnessTexture": {
          "index": 5
        }
      }
    }
  ],
  "meshes": [
    {
      "name": "defensoraCos_Material #2_0",
      "primitives": [
        {
          "attributes": {
            "NORMAL": 1,
            "POSITION": 0,
            "TANGENT": 2,
            "TEXCOORD_0": 3
          },
          "indices": 4,
          "material": 0,
          "mode": 4
        }
      ]
    },
    {
      "name": "escombra001_Material #3_0",
      "primitives": [
        {
          "attributes": {
            "NORMAL": 6,
            "POSITION": 5,
            "TANGENT": 7,
            "TEXCOORD_0": 8
          },
          "indices": 9,
          "material": 1,
          "mode": 4
        }
      ]
    }
  ],
  "nodes": [
    {
      "children": [
        1
      ],
      "matrix": [
        1.0,
        0.0,
        0.0,
        0.0,
        0.0,
        2.220446049250313e-16,
        -1.0,
        0.0,
        0.0,
        1.0,
        2.220446049250313e-16,
        0.0,
        0.0,
        0.0,
        0.0,
        1.0
      ],
      "name": "Sketchfab_model"
    },
    {
      "children": [
        2
      ],
      "matrix": [
        0.009999999776482582,
        0.0,
        0.0,
        0.0,
        0.0,
        0.0,
        0.009999999776482582,
        0.0,
        0.0,
        -0.009999999776482582,
        0.0,
        0.0,
        0.0,
        0.0,
        0.0,
        1.0
      ],
      "name": "defensora_03.fbx"
    },
    {
      "children": [
        3,
        6
      ],
      "name": "RootNode"
    },
    {
      "children": [
        4
      ],
      "matrix": [
        1.0,
        0.0,
        0.0,
        0.0,
        0.0,
        2.220446049250313e-16,
        -1.0,
        0.0,
        0.0,
        1.0,
        2.220446049250313e-16,
        0.0,
        0.0,
        0.0,
        0.0,
        1.0
      ],
      "name": "defensoraCos"
    },
    {
      "children": [
        5
      ],
      "matrix": [
        0.060642729731962955,
        0.4129743052965365,
        0.04978341904377943,
        0.0,
        -0.4709099590894298,
        0.0423059317672631,
        0.22268463694494084,
        0.0,
        0.12182310236640786,
        -0.0500917007507988,
        0.2671351245496574,
        0.0,
        -16.254030227661133,
        13.64498519897461,
        55.09030532836914,
        1.0
      ],
      "name": "Object_4"
    },
    {
      "mesh": 0,
      "name": "defensoraCos_Material #2_0"
    },
    {
      "children": [
        7
      ],
      "matrix": [
        0.10065464502144311,
        0.07993018971744488,
        -0.7136041941798201,
        0.0,
        -0.8926810610132582,
        0.002723947653994538,
        -0.12560852415380225,
        0.0,
        -0.006363362018861151,
        0.5106225401693781,
        0.056296830781332685,
        0.0,
        5.2535505294799805,
        42.31137466430664,
        -7.98948860168457,
        1.0
      ],
      "name": "escombra001"
    },
    {
      "children": [
        8
      ],
      "matrix": [
        1.0,
        0.0,
        -0.0,
        0.0,
        0.0,
        1.0,
        0.0,
        0.0,
        0.0,
        0.0,
        1.0,
        0.0,
        3.6239736080169678,
        7.490760326385498,
        92.86026000976563,
        1.0
      ],
      "name": "Object_7"
    },
    {
      "mesh": 1,
      "name": "escombra001_Material #3_0"
    }
  ],
  "samplers": [
    {
      "magFilter": 9729,
      "minFilter": 9987,
      "wrapS": 10497,
      "wrapT": 10497
    }
  ],
  "scene": 0,
  "scenes": [
    {
      "name": "Sketchfab_Scene",
      "nodes": [
        0
      ]
    }
  ],
  "textures": [
    {
      "sampler": 0,
      "source": 0
    },
    {
      "sampler": 0,
      "source": 1
    },
    {
      "sampler": 0,
      "source": 2
    },
    {
      "sampler": 0,
      "source": 3
    },
    {
      "sampler": 0,
      "source": 4
    },
    {
      "sampler": 0,
      "source": 5
    },
    {
      "sampler": 0,
      "source": 6
    }
  ]
}
